<svg xmlns="http://www.w3.org/2000/svg" viewBox="0 0 50.05 57.51"><defs><style>.cls-1{fill:#ddd;stroke:#000;stroke-miterlimit:10;stroke-width:0.75px;fill-rule:evenodd;}</style></defs><title>Agreste</title><g id="Camada_2" data-name="Camada 2"><g id="Content"><path class="cls-1" d="M48.28,37.3h-.34l-.32.06-.1-.72-.44-.54-.33-.4-.92-1.08-.59.42L45,34.92l-.13-.19,0-.1,0-.07-.08,0,0,0,0,.18-.1.1-.11,0-.08,0,0,0-.25.1-.38.21h-.16l-.09,0-.13.16-.05.13-.19-.07L43,35.28l-.11-.08-.08,0-.1-.08-.32-.14L42,34.64l.05-.08.15-.1h.25l.12-.14.12.13h0l0,0,.23-.1,0-.13L43.2,34l.31.11.08,0,0,0h.16l0-.08,0,0,.1,0H44l.25,0,0,0,0,0h.13l.14,0,.13,0,.05,0h0l0,0,.11,0-.21-.62-.14-.6.81-.38.59-.21h.09l.41-.31.08-.12v-.08l.05-.08.06-.13v-.06l0-.08.05,0,0-.1.07-.09,0-.16.05-.1v-.1l0-.05.16,0h.08l.11-.07h.07l.17-.11.08-.2.15-.19.73-1.32-.08,0-.07.12-.12-.07-.19.07-.1.1,0,.1-.13,0,0,.09-.1-.13h-.08l-.08.1h-.13V29l.08-.14,0-.05-.12,0,0,.07h0l-.11,0,0,0v-.07h.07l0-.13,0-.08-.16-.15h-.08l-.07-.06-.11,0-1.76-2.58v-.39h.11l.08-.05,0-.14.07-.2-.06-.13,0-.1.1-.24.08-.09.08,0,.57-.2.41-.1h.27l.38-.13h.11l.16-.08h0l1.53-.65.61-.56-.32-.24L49,22.28l-.14-.2,0,0-.26.08-.08,0-.07-.18-.05-.36-.07-.17-.05-.25-.09-.24-.1-.14-.15-.05,0-.19,0-.09-.08-.08,0-.13,0-.14,0-.25v-.11l0-.07-.38-.43-.07-.14,0-.3.14-.11.47-.16.11-.1,0-.17-.06,0,0-.09,0-.07-.11-.13v-.13l0-.11,0,0-.05-.05-.16-.05h-.08l-.11-.07h0l0,0-.07,0,0,0-.12,0-.05-.13-.1,0,0-.1,0-.24v-.13l0-.13v-.24l.06-.21.1-.19.19-.22v-.05h-.07l-.08.05h0l0-.21L47,15.52h-.15l-.1.05-.08,0-.06-.07-.23.07L46,15.33l-.1,0-.09,0-.13-.5,0-.09-.07-.05h-.13l-.14,0h-.12l-.14,0,.64-.14.24-.11h0l.14-.18,0-.08-.07-.41,0-.3.07-.21.16-.11.07-.09.2-.46.09-.07h.07l.07,0,.09.13v.14l0,0h.14l.07-.08,0-1.49-.57-.76-.28,0,.48-1.22.05-.3V8.6l0-.1.07-.12-.07-.07,0-.13h-.06l0,0,0-.17,0-.14h-.07L46.6,8h0l-.12-.1-.05,0-.05,0-.05,0-.1,0,0,.13-.09.13H46l-.19-.08-.07,0-.08.09h-.07l-.08,0h-.11l-.19.08-.13-.07,0,0,0,.13-.06,0-.54-.18-.11-.42-.17-1,1.29-2-1.11-.66L44.07,4l-.41-.14-.19-.05-.17,0L43,3.8h-.43l-.19,0h-.08l0,0V3.55l0-.13-.07.08,0,.19,0,0-.19-.08-.16-.26-.08-.05h-.1l-.08.06-.08.18-.09,0-.2,0-.06,0-.16.15-.29,0-.07-.13-.13-.08-.11,0-.1.12h0L40,3.39l-.07,0-.27,0-.17-.07-.12.1h-.1l-.18-.07-.14-.05,0,.12-.17,0-.09.12-.06,0-.11-.1-.08,0,0,.1h-.06l-.07-.05-.11,0L38,3.65l-.1.24L37.64,4l-.25,0,.07-.08,0-.09h-.17l-.14,0-.23-.07-.11,0,0,0V3.61l-.05,0h-.11l0,0-.07-.12-.14-.08,0-.22-.13-.18L36,2.82,36,2.67l-.19-.05-.1.05-.37.08,0,0,.05-.1v0l-.13-.05-.12,0-.25-.15-.3,0-.37-.16-.22,0-.1-.11h-.07l-.06-.05-.12,0-.14.06,0,.1,0,0h-.16l-.1.06H33l-.11-.07-.22-.07-.18.2-.37.27-.08.12-.19.07-.19.2-.16.07h-.15l-.08,0-.19,0-.1,0L30.93,3l-.05.07-.11.07h-.19l-.24.13,0,0,0-.08L30,3.39l-.3,0-.22.13-.4,0-.26,0-2.92.18L22.22,4l-.24,0-.3-.12-.3-.2-.28.13L21,3.8h-.11l-.38-.14h-.19L20,3.59l0,0-.2-.06,0-.1,0-.16-.19,0,0-.12.17-.16,0-.07-.11-.28-.09-.12-.14-.12L18.52,2l-.58-.48-.17-.24L17.52.64,17.3.84H17V.77L17.1.7l0,0L17,.56l0-.1-.13,0,0,0V.55l-.16.14,0,.12-.05.05-.11,0L16.25,1l-.1,0h0L16,1.11l-.15,0-.12.08-.05.1-.05,0-.05.09h-.08l-.4-.08-.2-.08h0l-.13.12-.2-.1-.17,0-.09,0h0l-1,.16-.16,0h-.34l-.33.08-.25-.06-.38.05-.59,0-.11.81,0,.55L11,6.64l-.37,1.43-.14.66L10.28,10,10,11.68l-.32,5-.1,1.45h0L8.43,20.49l-.09.1L8.17,21l0,.39L8,21.63l-.13.13-.27.18-.1,0H7.36l-.18,0-.23,0v0l-.06.1-.28.21-.34.22-.34.12L4.24,23.7l-3.31.44,0,.25L.46,25.47l0,.33.61,3.49.09.44-.46.44-.08,0-.07.16,0,.22-.08.07-.07.18,0,.24v.24l0,.11,0,.22,0,.22V32l0,.05.85.08,1.86.3.1.18.13.08.07.15v.11l.08.08v0l.12.06v0L7,32l-.7,3.8.52,1-.6,2.42.29.11h.31l.28.05.39,0,.27,0,.12-.05.91,0,0-.1,0,0h.11l0,0,.13-.31h.08l.09.08.08,0,.58.07.12-.18.28-.12h0l.26.13,0,.07v.07l0,.07-.16.11.14.14H11l.14-.07.22-.18.08-.11,0-.14.11-.08h.09l.05,0,.07.21.05.06h.11l.16-.07.1,0,.19-.17.16-.06.46-.35.13,0,.12.05h.26l.26-.07.24,0,.34.12.4.24.13.18,3.56.36.05.05.35.13,0,.07.15.1.21.22.11-.08.11.26h.07l.1-.12h0l.14.1h0l0-.05,0,0,0,0L20,40v.11l-.1.17-.2,0-.12.14,0,.16h0l.11.13.27.08L20,41,20,41l-.07-.1-.06,0L19.6,41l-.3.28v.06l.46,0,0,0,0,.07,0,.34-.07.16-.08.05L19.39,42h-.07l0,.06.08.11h-.19l0,0,.15.11.15,0,.19.1,0,0-.06.11h0l.15.2.06,0,0,.15.1,0,0,0,.16.24,0,.07-.05.14,0,.2-.08.16.31.07.05,0h.11l.16.1.24,0,.07.1.17,0,0,.05.1,0,.08,0,.09-.09.24.21.16.08.11-.1.13.05.14.16.06.13.21.16.07,0,.09,0,.52.31.13-.1,0-.11.1-.1.24.07h.25l0,.27,0,.05.09,0,.08-.08.2-.1h.25l.1.06.1,0,.11,0L25,45l0,.06.05.16,0,.07-.14.07-.1.22-.12.14v.14L24.6,46l0,.12.07.14.1.05.14,0,.2,0,.14.06.39.42h.11l.08,0,.06,0H26l.08,0,.77.25,0,.3.11,0v.08l0,0-.28.05h-.27l-.14,0-.12.05h-.14l-.25.28,0,.1-.26.11-.13.07,0,.24-.1.16,0,.15-.24.1,0,.11,0,.18.05.12.08.07,0,.12v.11l.09.22.11.1,0,.18,0,.05,0,.09.08.05v0l-.11.21-.06,0v.05l.1.07v.24l0,0V51l0,.11-.25,0-.28,0-.07,0h-.36l-.11.16-.17.1-.08.09-.12,0,0,0h-.2l-.3.16h-.11l-.19.19-.08,0h-.06l-.23-.07-.11-.18v-.08l.06-.07v-.06l-.06-.12-.35-.18L22.17,51,22.09,51,22,50.72l-.14-.2h0l-.19.14,0,0-.05.06-.08.2-.1,0,0,.12-.21.24,0,.31-.15.17-.06.22-.13.13,0,.11,0,.1h.05l.05-.05H21l0,0v.06l-.09.08v.06l.07.07,0,.22,0,0-.07-.06,0,.05,0,.16v.27h-.11l-.14.35v.05l.08.08v.06l-.06.05-.11-.08h-.07l0,0,0,.23h0l.1,0,.09,0-.17.1-.14.15,0,.16-.11.16-.05.44-.14,0-.16-.16-.07,0,0,0,0,.07h-.07l-.08-.14h0l0,.18,0,.13h-.06l-.08,0h0v.07l-.1.08v.07l0,0h-.07l0,.17,0,0H19l-.08.15,0,.13,0,0h-.08l0,0,0,.2-.08.15-.15,0,.07,0,.14.11.1.12.07.15.17.16.11,0,.38,0,.23,0,.2,0h0l0-.14,0-.16,0-.08.14-.13.07,0,.38.13.1-.09.19-.36.16-.1.43-.08.16.08h.38l.08,0h0l.15,0,.12-.16.11,0,.18,0,.76.3h.2l.25-.13.11-.15.06,0,.09-.19.09-.08.23-.12.11-.34-.08-.08V55l.07-.23.18-.19.2-.07.1,0,.1,0,.2.05.46-.15.35,0,.24,0,.11.09.13.07h0l.13-.08.2,0,.12-.08h.06l.21-.05.1.06h.08l.08,0,.16-.16.22-.08.19,0,.13-.05.24,0,.58-.5.29-.14.28,0,.19,0,.16-.38.07-.07.19-.09.33-.07.28.06.31-.08.08-.09.09-.25,0-.07.06-.06.26-.16h.11l.08.08v.12l.07.11.15,0H33l.23,0,.16-.07.34,0,.19,0,0-.07.23-.09.35-.34.19-.1.41-.51.05-.19V51l.12-.1,0,0,0-.1.2-.1.49,0,.16,0,.18-.11.21.08.32,0,.09,0,.3.06.2.13.51-.1.61-.1,0,0,0-.18.07-.12.11,0,.19-.07h.11l.14,0,0,0v0l0,0-.14,0-.43-.56-.05-.18,0-.09.11-.19.1-.29,0,0,.15,0,.13,0,0,0-.16-.19,0-.06.16-.37.11-.14v0h-.12l-.23.17-.16,0h-.13l-.2-.05L38.46,48l0-.24.17-.29.17-.07.06-.07.12-.44.17-.34,0-.1v-.31l.05-.19.12-.17h.17l.07-.13.07-.22V45.2l.08-.1.2-.11-.08-.18v-.33l-.09-.1,0-.11,0-.16,0-.79.16-.6.11-.07.31-.08.53-.3h.11l.17,0,.49.2.34.08.4.16.12.11.06.11,0,.17.13.16,0,.05.14,0,.09,0,.13.1h.11l.07-.07.16,0,.11-.07.12-.31.07-.07.44-.19.2,0,.12-.14.14-.11.2,0h.19l.11-.21.17-.11h.14l.1.07.19,0h.2l.08,0L46,42l0-.16-.12-.24,0-.2v-.07l0,0,.2,0,.14,0h0l.16,0,.2.06.07-.15,0-.16V41l-.08-.1v-.16h.17l.13.14.14,0,.19-.05.06-.12.07-.05h.08l.2.13.1,0,.18-.16.11,0,.13-.07.2-.16.25-.25.18-.14-.1-.14-.05,0-.1-.19.21-.1.11-.11,0-.06,0,0,.12-.07.06-.09,0-.13L49,38.83Zm-30-14-.24.18h0l.24-.17.47-.18.45-.28.1-.1v-.28l.16-.14.11,0,0,0-.08,0v0l.05,0,.13-.09.71-.3h0l-.71.3-.13.09-.05,0v0l.08,0,0,0-.11,0-.16.14v.28l-.1.1-.45.28Zm-5.56.65,0,.05-.14.09,0,.07,0,.1,0,.1,0,.11-.13.22v.09l0,.1,0,.08-.13.15-.11.1-.11.18v.19l0,.08,0,0v.07l0,.14,0,.2-.08,0,0,.11,0,.15,0,.27,0,.08,0,.13-.13.1v.1l0,0h0l0,0V27l.13-.1,0-.13,0-.08,0-.27,0-.15,0-.11.08,0,0-.2,0-.14v-.07l0,0,0-.08v-.19l.11-.18.11-.1.13-.15,0-.08,0-.1v-.09l.13-.22,0-.11,0-.1,0-.1,0-.07.14-.09,0-.05,0,0,0-.07.08-.06.19-.22h0l-.18.22-.08.06,0,.07Zm-1.6,6.47,0-.15,0-.12-.16-.25,0,0h0l0,0,.16.25,0,.12,0,.15.1.19-.1.18,0,.09,0,0h0l0,0,0-.09.1-.18ZM11,29.5l0-.1v-.13l-.1,0,0-.18-.11,0,0-.16-.07-.11,0-.14v-.18l0-.06,0-.13,0-.07,0-.05V28l-.06,0h0l.07,0v.13l0,.05,0,.07,0,.13,0,.06v.18l0,.14.07.11,0,.16.11,0,0,.18.1,0v.13l0,.1,0,.31v0h0v0Zm-.26-2.31-.11.13-.12.06h0l.12-.06.11-.13,0,0h0Zm-.47.59,0,.13.05,0h0l-.05,0,0-.13-.1-.13v0l.11-.13.07-.16h0l-.06.16-.11.13v0Zm.8-.62h0l.1-.06h0ZM14,22.86l-.11.3-.3.16h0l.3-.16.11-.3,0-.34.13-.4h0l-.13.4Zm-.56.49h0l-.06,0-.07.13h0l.07-.13Zm1.79-1.61h0l.27-.13h0Zm6.54,3.63h0l-.07,0h0Zm-.32,1.49h0Zm.37-6,.11-.09h0l-.11.09V21l-.26.18-.1.1-.08,0h0l.08,0,.1-.1.26-.18Zm-.74.49h0l.06,0h0Zm-.45.32.05-.13.12-.16h0l-.12.16-.05.13-.11.07h0ZM13,32.44l-.49-.07-.67.08-.1-.05-.22-.05-.47,0v-.16l.11-.09.05-.11,0-.2.08-.22,0-.26-.08-.16,0-.07.07,0,0-.1,0,0h0l0,0,0,.1-.07,0,0,.07.08.16,0,.26-.08.22,0,.2-.05.11-.11.09v.16l.47,0,.22.05.1.05.67-.08.49.07.19.06h0ZM18.17,31,18,31l-.35.06h-.18l-1-.42-.22-.07-.12,0-.42-.05-.05,0h0l.05,0,.42.05.12,0,.22.07,1,.42h.18L18,31l.17,0,.45.32h0Zm.57,0h0Z"/></g></g></svg>