<svg xmlns="http://www.w3.org/2000/svg" viewBox="0 0 40.91 53.97"><defs><style>.cls-1{fill:#ddd;stroke:#000;stroke-miterlimit:10;stroke-width:0.75px;fill-rule:evenodd;}</style></defs><title>Borborema</title><g id="Camada_2" data-name="Camada 2"><g id="Content"><polygon class="cls-1" points="40.44 34.31 40.46 34.11 39.96 33.94 39.91 33.97 39.84 33.96 39.8 33.93 39.75 33.96 39.68 33.95 39.43 33.68 39.33 33.64 39.2 33.66 39.11 33.64 39.04 33.61 38.99 33.52 38.98 33.44 39.02 33.34 39.02 33.24 39.1 33.15 39.17 33.01 39.26 32.96 39.27 32.92 39.24 32.81 39.25 32.77 39.17 32.75 39.1 32.77 39.03 32.75 38.97 32.71 38.81 32.72 38.67 32.78 38.62 32.84 38.56 32.87 38.54 32.84 38.51 32.66 38.34 32.66 38.19 32.61 38.12 32.67 38.11 32.75 38.02 32.81 37.69 32.61 37.63 32.62 37.58 32.6 37.45 32.49 37.41 32.41 37.32 32.3 37.23 32.27 37.16 32.33 37.06 32.28 36.9 32.15 36.84 32.2 36.79 32.22 36.73 32.19 36.7 32.16 36.59 32.17 36.54 32.11 36.39 32.14 36.28 32.07 36.21 32.07 36.17 32.09 35.97 32.04 36.02 31.94 35.99 31.81 36.02 31.71 36.01 31.67 35.91 31.51 35.88 31.48 35.82 31.47 35.85 31.37 35.81 31.36 35.71 31.23 35.71 31.23 35.75 31.15 35.73 31.13 35.6 31.06 35.51 31.04 35.41 30.97 35.44 30.95 35.56 30.94 35.51 30.86 35.53 30.83 35.58 30.82 35.7 30.86 35.76 30.83 35.8 30.72 35.82 30.5 35.84 30.45 35.81 30.43 35.51 30.4 35.51 30.36 35.71 30.18 35.86 30.11 35.9 30.12 35.95 30.19 36 30.15 35.97 30.03 35.8 29.98 35.73 29.89 35.73 29.89 35.71 29.79 35.78 29.7 35.91 29.67 35.98 29.56 35.98 29.49 35.92 29.4 35.89 29.39 35.88 29.41 35.86 29.45 35.83 29.45 35.74 29.38 35.71 29.39 35.65 29.47 35.6 29.46 35.53 29.29 35.46 29.34 35.32 29.2 35.22 29.13 35.2 29.09 34.97 29 34.93 28.96 32.61 28.73 32.52 28.61 32.26 28.46 32.04 28.38 31.88 28.4 31.71 28.44 31.54 28.45 31.46 28.42 31.37 28.43 31.07 28.66 30.97 28.7 30.85 28.81 30.78 28.8 30.68 28.84 30.61 28.83 30.57 28.8 30.53 28.66 30.49 28.64 30.43 28.64 30.36 28.7 30.35 28.79 30.3 28.86 30.16 28.98 30.06 29.03 29.81 29.03 29.72 28.93 29.83 28.86 29.86 28.81 29.86 28.77 29.82 28.72 29.66 28.64 29.65 28.64 29.46 28.72 29.39 28.84 29.01 28.79 28.95 28.77 28.89 28.72 28.84 28.71 28.76 28.92 28.74 28.94 28.67 28.94 28.64 28.96 28.62 29.02 28.02 29 27.94 29.04 27.77 29.07 27.51 29.08 27.33 29.05 27.12 29.04 26.93 28.97 27.32 27.38 26.98 26.74 27.44 24.26 25.37 25.03 25.37 25.01 25.29 24.97 25.29 24.93 25.24 24.88 25.23 24.81 25.18 24.71 25.1 24.65 25.03 24.54 23.81 24.35 23.26 24.29 23.28 24.25 23.28 24.19 23.24 24.05 23.26 23.9 23.23 23.83 23.24 23.67 23.2 23.51 23.25 23.4 23.3 23.35 23.29 23.21 23.33 23.1 23.38 23.07 23.68 22.79 23.63 22.5 23.23 20.23 23.2 20.01 23.52 19.3 23.51 19.14 25.67 18.85 26.78 18.14 27 18.06 27.22 17.91 27.41 17.77 27.45 17.71 27.44 17.69 27.59 17.7 27.71 17.72 27.82 17.72 27.89 17.7 28.07 17.58 28.15 17.5 28.21 17.34 28.24 17.08 28.35 16.82 28.41 16.75 29.13 15.24 29.13 15.23 29.2 14.28 29.41 11 29.62 9.87 29.75 9.07 29.84 8.64 30.08 7.7 30.15 5.28 30.17 4.92 30.24 4.39 29.98 4.41 29.44 4.49 29.4 3.63 29.2 3.63 29.13 3.57 28.94 3.56 28.85 3.54 28.73 3.47 28.35 3.41 28.25 3.37 28.23 3.33 28.25 3.25 28.18 3.14 28.16 3.07 28.16 2.89 28.22 2.73 28.32 2.58 28.61 2.31 28.69 2.18 28.74 1.94 28.68 1.59 28.67 1.35 28.65 1.11 28.26 0.68 28.04 0.43 27.93 0.4 27.77 0.44 27.36 0.72 26.98 0.95 26.62 1.14 26.49 1.14 25.66 0.72 24.72 2.52 24.66 2.54 24.34 2.52 23.24 2.45 22.91 2.41 22.9 2.73 22.81 2.99 22.79 3.15 22.71 3.51 22.62 3.71 22.42 3.99 22.23 4.48 22.15 4.65 22.09 4.88 22.11 5.11 22.13 5.24 22.1 5.4 22.13 5.53 22.16 5.59 22.21 5.73 22.19 5.96 22.23 6.17 22.47 6.22 22.89 6.5 22.99 6.54 23.2 6.57 23.36 6.65 23.39 6.68 23.4 6.75 23.39 7 23.43 7.12 23.46 7.21 23.51 7.28 23.64 7.41 23.71 7.43 23.87 7.46 24.09 7.5 24.23 7.56 24.31 7.62 24.38 7.74 24.41 7.84 24.44 8.08 24.45 8.43 24.43 8.64 24.49 9.12 24.58 9.45 24.57 9.51 24.52 9.54 24.23 9.41 24.11 9.47 23.99 9.66 23.94 9.68 23.78 9.52 23.72 9.41 23.64 9.21 23.59 9.15 23.5 9.1 23.3 9.05 23.18 8.98 23.06 8.87 22.94 8.85 22.85 8.81 22.75 8.69 22.69 8.65 22.57 8.63 22.47 8.65 22.33 8.7 22.26 8.76 22.26 8.8 22.3 8.85 22.35 8.96 22.35 9.05 22.35 9.09 22.33 9.19 22.25 9.38 22.09 9.69 21.81 10.51 21.78 10.66 21.77 10.84 21.72 11.11 21.66 11.28 21.5 11.48 21.37 11.6 21.36 11.64 21.39 11.73 21.47 11.85 21.62 11.98 21.75 12.22 21.8 12.25 22.03 12.28 22.18 12.32 22.25 12.39 22.36 12.6 22.56 12.73 22.78 12.82 22.84 12.92 22.85 12.97 22.82 13.15 22.87 13.44 22.83 13.58 22.82 13.86 22.76 14.26 22.72 14.37 22.64 14.5 22.49 14.61 22.14 14.7 22.09 14.74 22.03 14.83 21.94 14.93 21.83 15.11 21.76 15.14 21.72 15.16 21.67 15.1 21.59 15.18 21.48 15.14 21.4 15.15 21.33 15.11 21.17 15.2 21.08 15.29 20.97 15.54 20.97 15.6 21.16 15.78 21.17 15.83 21.16 15.89 21.1 15.95 21.13 16 20.99 16.11 20.96 16.28 20.9 16.4 20.84 16.44 20.55 16.89 20.48 16.96 20.36 17.1 20.33 17.2 20.2 17.46 20.04 17.63 19.99 17.65 19.91 17.62 19.86 17.56 19.31 17.55 19.03 17.44 18.86 17.4 18.7 17.37 18.38 17.34 18.01 17.34 17.94 17.4 17.82 17.57 17.43 18.63 17.35 18.77 17.27 18.83 17.19 18.84 17.04 18.78 16.7 18.58 16.53 18.45 16.25 18.14 16.23 18.11 16.22 18.09 15.98 17.72 15.95 17.59 15.97 17.48 16.05 17.37 16.11 17.04 16.16 16.71 16.2 16.59 16.23 16.55 16.35 16.4 16.39 16.34 16.53 16.04 16.89 14.99 16.86 14.95 16.79 14.95 16.09 15.03 15.86 15.05 15.78 13.69 15.35 13.31 14.15 12.22 13.13 12.54 12.36 12.81 12.19 12.9 11.93 13.02 11.48 13.31 10.96 13.78 10.91 13.6 11.01 13.49 11.08 13.38 10.93 13.39 10.77 13.35 10.65 13.26 10.57 13.13 10.55 13.07 10.54 12.93 10.58 12.47 10.43 11.97 10.28 11.84 10.2 11.72 10.13 11.69 10.1 11.64 10.01 11.6 9.84 11.6 9.75 11.65 9.59 11.78 8.92 12.3 8.76 12.46 8.52 12.57 8.29 12.7 8.08 12.77 7.87 12.82 7.25 12.99 6.71 13.17 6.5 13.13 6.47 13.14 6.44 13.16 6.36 13.28 6.31 13.44 6.26 13.52 6.09 13.59 5.94 13.81 5.87 13.99 5.83 14.03 5.5 14.22 5.4 14.31 5.33 14.43 5.12 14.48 5.06 14.52 4.86 14.7 4.81 14.72 4.25 14.69 4.01 14.7 3.71 14.68 3.78 14.73 4.02 15.15 4.15 15.44 4.24 15.87 4.27 16.31 4.29 16.83 4.66 16.83 4.72 16.99 4.81 17.06 4.86 17.13 5.17 17.15 5.2 17.2 5.19 17.25 5.11 17.36 4.92 17.46 4.79 17.57 4.78 17.59 4.81 17.61 5.05 17.61 5.09 17.64 5.16 17.73 5.29 17.8 5.32 17.84 5.31 17.91 5.18 18.08 5.11 18.36 5.18 18.49 5.29 18.59 5.32 18.83 5.69 19.03 5.85 19.06 6.04 19.2 6.16 19.35 6.32 19.36 6.44 19.36 6.46 19.5 6.53 19.57 6.83 19.63 6.99 19.71 7.11 19.85 7.27 19.92 7.56 19.91 7.82 19.69 7.95 19.65 7.97 19.68 7.98 19.74 8.07 19.82 8.21 19.85 8.38 19.94 8.39 19.98 8.3 20.09 8.27 20.18 8.27 20.23 8.29 20.28 8.45 20.33 8.83 20.39 9.08 20.49 9.19 20.56 9.35 20.58 9.7 20.66 9.82 20.77 9.91 20.91 10.01 20.92 10.15 20.84 10.31 20.79 10.48 20.8 10.68 20.66 10.9 20.56 11.06 20.57 11.18 20.56 11.31 20.48 11.44 20.49 11.47 20.54 11.55 20.59 12.02 21.41 11.99 21.41 11.93 21.46 11.86 21.6 11.88 21.68 11.86 21.76 11.86 21.86 11.82 22.07 11.8 22.11 11.6 22.18 11.62 22.21 11.72 22.23 11.77 22.3 11.75 22.34 11.76 22.36 11.84 22.4 11.85 22.41 11.83 22.47 11.77 22.51 11.64 23.24 11.57 23.26 11.44 23.26 11.29 23.29 11.09 23.22 10.97 23.21 10.78 23.26 10.45 23.52 10.03 24.03 9.79 23.91 9.34 24.3 8.94 24.29 9.45 25.89 9.53 26.75 9.13 26.84 8.45 29.28 8.54 29.23 9.03 29.44 9.17 29.45 9.21 29.54 9.25 29.63 9.33 29.67 9.4 29.86 9.48 29.92 9.49 29.92 9.5 29.93 9.36 30.1 9.22 30.23 9.16 30.41 9.38 30.46 9.46 30.62 9.22 30.71 9.29 30.87 9.5 31 9.56 31.23 9.75 31.26 9.91 31.38 10 31.52 9.96 31.73 10.03 31.77 10.17 31.76 10.22 31.81 10.25 31.98 10.01 32.14 9.9 32.25 9.75 32.35 9.65 32.3 9.56 32.17 9.28 32.36 9.19 32.37 9.16 32.37 9.16 32.37 8.93 32.44 8.71 32.55 8.43 32.57 8.32 32.65 8.19 32.82 8.06 32.9 7.77 32.88 7.59 32.92 7.37 33.03 7.07 33.26 6.75 33.35 6.67 33.4 6.48 33.57 6.26 33.9 6.14 34 5.79 34.22 5.57 34.41 5.25 34.87 5.17 35 5.12 35.13 5.03 35.49 4.98 35.56 4.8 35.7 4.7 35.85 4.67 36.01 4.69 36.27 4.75 36.45 4.8 36.52 4.93 36.59 5.07 36.76 5.18 36.93 5.22 37.02 5.25 37.22 5.29 37.29 5.45 37.47 5.63 37.65 5.8 37.87 5.92 38.15 5.9 38.34 5.91 38.47 5.96 38.59 6.02 38.67 6.12 38.74 6.18 38.81 6.21 38.91 6.17 39.02 6.09 39.13 5.97 39.24 5.88 39.35 5.82 39.5 5.74 39.63 5.75 39.73 5.87 39.81 5.74 40.09 5.66 40.16 5.56 40.23 5.37 40.21 5.36 40.25 5.41 40.31 5.38 40.34 5.29 40.33 5.06 40.09 4.84 40.11 4.67 40.31 4.16 40.51 4.01 40.45 3.82 40.51 3.83 40.68 3.48 40.84 3.56 40.94 3.78 40.88 3.88 40.91 3.92 41.09 4.02 41.29 4.04 41.45 3.94 41.51 3.61 41.49 3.39 41.57 3.37 41.6 3.37 41.67 3.3 41.75 3.3 41.78 3.38 41.83 3.42 41.88 3.44 41.96 3.45 42.02 3.39 42.13 3.46 42.28 3.45 42.31 3.34 42.33 3.25 42.39 3.2 42.51 3.06 42.52 3 42.54 2.96 42.64 2.79 42.73 2.6 42.91 2.46 42.97 2.33 43.07 2.12 43.12 1.91 43.08 1.79 43.18 1.73 43.15 1.59 43.17 1.43 43.24 1.4 43.29 1.43 43.32 1.53 43.28 1.66 43.27 1.75 43.3 1.79 43.36 1.79 43.4 1.73 43.48 1.71 43.54 1.77 43.6 1.79 43.68 1.8 43.79 1.77 43.87 1.62 43.91 1.54 44.09 1.51 44.1 1.4 44.07 1.32 44.12 1.21 44.15 1.1 44.1 1.03 44.15 0.96 44.16 0.87 44.2 0.82 44.21 0.73 44.19 0.7 44.2 0.69 44.25 0.76 44.4 0.67 44.57 0.65 44.76 0.54 44.88 0.51 44.94 0.55 44.96 0.6 44.94 0.93 44.93 0.94 44.95 0.95 45.06 0.97 45.07 1.03 45.05 1.12 44.97 1.29 44.93 1.47 44.8 1.56 44.76 1.68 44.75 1.85 44.81 1.92 44.82 1.99 44.71 2.12 44.68 2.23 44.7 2.4 44.82 2.59 44.86 2.86 44.81 2.96 44.76 3.1 44.82 3.39 44.79 3.54 44.88 3.64 44.9 3.7 44.88 3.81 44.79 3.83 44.8 3.84 44.87 3.87 44.88 3.94 44.86 4.11 44.88 4.14 44.83 4.06 44.68 4.06 44.62 4.07 44.54 4.16 44.45 4.28 44.41 4.41 44.33 4.42 44.34 4.54 44.45 4.77 44.53 4.81 44.56 4.84 44.77 4.82 44.82 4.79 45.15 4.8 45.17 4.89 45.14 4.92 45.15 4.94 45.27 5 45.35 5.03 45.37 5.14 45.33 5.18 45.36 5.2 45.38 5.24 45.51 5.26 45.52 5.46 45.48 5.65 45.52 5.72 45.6 5.79 45.77 5.88 45.85 5.91 46 5.93 46.22 5.94 46.23 6.32 46.23 6.44 46.25 6.48 46.29 6.5 46.34 6.54 46.56 6.57 46.64 6.61 46.68 6.92 46.67 7.01 46.8 7.1 46.88 7.25 46.93 7.41 46.94 7.6 46.85 7.77 46.81 7.91 46.72 7.94 46.65 8.01 46.62 8.05 46.49 8.21 46.53 8.37 46.61 8.52 46.61 8.63 46.7 8.79 46.76 8.84 46.76 9.04 47.22 9 47.44 9.07 47.59 9.09 47.74 9.15 47.9 9.28 48.06 9.29 48.09 9.26 48.1 9.22 48.17 9.15 48.23 9.07 48.26 8.97 48.25 8.71 48.31 8.67 48.3 8.56 48.22 8.52 48.22 8.38 48.27 8.23 48.25 8.13 48.32 8.1 48.38 8.04 48.41 7.95 48.44 7.86 48.41 7.64 48.51 7.62 48.57 7.52 48.65 7.41 48.78 7.36 48.78 7.33 48.81 7.25 48.81 7.17 48.89 7.05 48.95 7.02 48.93 6.98 48.95 6.75 48.91 6.72 48.92 6.7 48.97 6.66 48.97 6.36 48.85 6.15 48.9 6.07 48.89 5.84 48.95 5.79 49.08 5.7 49.25 5.86 49.41 5.9 49.55 5.73 49.72 5.57 49.77 5.57 49.96 5.66 50.08 5.93 50.2 6.15 50.26 6.36 50.23 6.54 50.17 6.75 50.21 6.73 50.44 6.59 50.56 6.55 50.64 6.63 51.1 6.89 51.47 6.96 51.53 7.12 51.62 7.22 51.75 7.3 51.71 7.49 51.68 7.67 51.45 7.73 51.43 7.98 51.63 8.08 51.65 8.1 51.73 7.9 51.82 7.74 51.94 7.71 52.06 7.69 52.49 7.72 52.61 7.86 52.65 8.32 52.54 8.41 52.57 8.56 52.58 8.71 52.56 8.79 52.61 9.01 52.87 9.11 53.05 9.24 53.19 9.3 53.22 9.53 53.34 9.74 53.38 10.07 53.57 10.23 53.53 10.31 53.47 10.41 53.42 10.5 53.42 10.88 53.51 11.02 53.47 11.11 53.41 11.17 53.36 11.22 53.26 11.19 53.06 11.21 52.94 11.22 52.9 11.28 52.84 11.35 52.8 11.59 52.79 11.85 52.7 12.01 52.56 12.1 52.46 12.24 52.26 12.38 52.13 12.45 52.01 12.56 51.93 12.99 51.8 13.27 51.57 13.46 51.45 13.7 51.36 13.94 51.31 14.43 51.08 14.65 51.04 14.74 51 14.92 50.74 15.06 50.65 15.18 50.6 15.23 50.59 15.38 50.59 15.71 50.62 15.83 50.67 15.92 50.76 15.98 50.78 16.07 50.76 16.28 50.64 16.35 50.48 16.37 50.22 16.61 50.13 17.05 50.13 17.09 50.03 17.27 50 17.19 49.87 17.01 49.72 17.08 49.57 17.45 49.71 17.58 49.76 17.76 49.67 18.02 49.7 18.01 49.59 17.82 49.38 17.84 49.3 18.05 49.17 18.52 48.87 18.89 48.77 19.24 48.75 19.31 48.72 19.4 48.62 19.54 48.52 19.57 48.4 19.56 48.3 19.32 48.05 19.24 48.02 19.06 48.03 19.05 48 19.07 47.87 19.02 47.78 18.97 47.74 18.89 47.77 18.79 47.76 18.76 47.7 18.82 47.52 18.88 47.45 19.21 47.24 19.54 47.1 19.56 47.06 19.52 46.34 19.6 45.67 19.56 45.24 19.68 45.13 19.7 45.08 19.68 44.97 19.7 44.8 19.78 44.59 19.84 44.57 19.94 44.46 19.98 44.23 20.04 44.22 20.17 44.35 20.28 44.35 20.45 44.45 20.51 44.47 20.79 44.54 20.89 44.54 20.98 44.48 21 44.39 20.97 44.33 20.83 44.27 20.81 44.2 20.91 44.08 20.99 43.95 21 43.91 21.01 43.77 20.88 43.53 20.86 43.37 20.93 43.2 21.03 43.09 21.23 42.99 21.54 42.94 21.61 42.95 21.78 43.03 21.95 43.01 22.08 43.04 22.22 43.15 22.57 43.36 22.92 43.51 22.96 43.49 23.1 43.37 23.16 43.36 23.23 43.39 23.35 43.5 23.42 43.62 23.52 43.6 23.68 43.44 23.84 43.37 23.92 43.35 24.14 43.36 24.3 43.4 24.36 43.37 24.36 43.29 24.32 43.25 24.32 43.18 24.38 43.12 24.48 43.06 24.59 42.91 24.72 42.68 24.73 42.59 24.7 42.49 24.66 42.44 24.48 42.42 24.46 42.4 24.47 42.34 24.66 42.26 24.71 42.14 24.76 42.1 24.76 41.88 24.71 41.65 24.78 41.22 24.73 41.05 24.78 40.85 24.89 40.76 25.32 40.71 25.61 40.56 25.66 40.54 26.21 40.67 26.34 40.64 26.48 40.5 26.54 40.49 26.74 40.54 26.86 40.53 27.16 40.59 27.59 40.58 27.78 40.51 27.89 40.51 28.08 40.56 28.28 40.65 28.51 40.81 28.67 41 28.88 41.14 29.08 41.17 29.14 41.18 29.35 41.13 29.5 41.02 29.61 40.92 29.7 40.8 29.71 40.63 29.64 40.53 29.4 40.46 29.32 40.38 29.33 40.24 29.38 40.13 29.53 39.95 29.85 39.72 30.03 39.55 30.21 39.44 30.3 39.4 30.45 39.47 30.57 39.56 30.62 39.64 30.63 39.89 30.72 40.07 30.8 40.09 31.11 39.95 31.2 39.91 31.72 39.91 32.22 39.85 32.65 39.92 32.9 39.96 33.27 39.8 33.34 39.78 33.85 39.79 34.16 39.84 34.29 39.95 34.41 40.13 34.5 40.32 34.56 40.38 34.65 40.37 34.73 40.3 34.78 40.21 34.83 40.17 35.04 40.24 35.14 40.2 35.2 40.11 35.18 39.98 35.19 39.95 35.24 39.95 35.27 39.92 35.29 39.84 35.34 39.74 35.4 39.73 35.41 39.71 35.4 39.6 35.44 39.6 35.47 39.57 35.47 39.53 35.53 39.48 35.54 39.43 35.57 39.43 35.63 39.45 35.67 39.44 35.65 39.36 35.68 39.24 35.7 39.24 35.76 39.33 35.8 39.33 35.79 39.28 35.82 39.27 35.86 39.28 35.97 39.38 36.06 39.36 36.09 39.07 36.17 38.97 36.15 38.86 36.24 38.76 36.35 38.7 36.29 38.68 36.22 38.69 36.19 38.68 36.16 38.53 36.18 38.52 36.23 38.53 36.3 38.58 36.34 38.54 36.34 38.5 36.29 38.45 36.29 38.41 36.38 38.18 36.45 38.17 36.45 38 36.48 37.89 36.51 37.86 36.55 37.9 36.59 37.89 36.62 37.74 36.57 37.7 36.57 37.66 36.63 37.61 36.63 37.57 36.6 37.54 36.55 37.53 36.52 37.54 36.49 37.57 36.45 37.57 36.43 37.5 36.46 37.43 36.55 37.34 36.59 37.2 36.68 37.09 36.7 36.89 36.84 36.73 36.86 36.65 36.92 36.63 36.98 36.5 37.01 36.46 37.05 36.48 37.17 36.38 37.2 36.38 37.28 36.52 37.34 36.67 37.39 36.72 37.45 36.77 37.68 36.89 37.72 36.97 37.71 37.01 37.67 37.06 37.68 37.11 37.75 37.22 37.9 37.27 37.94 37.27 37.99 37.24 38.11 37.11 38.18 37.12 38.38 37.02 38.51 37.02 38.53 36.99 38.61 36.97 38.66 36.91 38.77 36.84 38.84 36.74 39.08 36.75 39.12 36.73 39.31 36.72 39.47 36.74 39.44 36.67 39.44 36.61 39.47 36.6 39.47 36.44 39.4 36.4 39.39 36.36 39.43 36.34 39.5 36.21 39.5 36.19 39.44 36.15 39.45 36.09 39.43 36.06 39.4 35.94 39.33 35.88 39.27 35.73 39.27 35.66 39.23 35.58 39.18 35.53 39.14 35.45 39.13 35.33 39.15 35.26 39.3 35.19 39.32 35.1 39.39 34.99 39.41 34.84 39.5 34.79 39.67 34.72 39.69 34.65 39.86 34.47 39.95 34.47 40.03 34.43 40.12 34.42 40.3 34.42 40.48 34.39 40.5 34.37 40.51 34.32 40.44 34.31"/></g></g></svg>