<svg xmlns="http://www.w3.org/2000/svg" viewBox="0 0 39.27 61.65"><defs><style>.cls-1{fill:#ddd;stroke:#000;stroke-miterlimit:10;stroke-width:0.75px;}</style></defs><title>Mata Paraíbana</title><g id="Camada_2" data-name="Camada 2"><g id="Camada_6" data-name="Camada 6"><path class="cls-1" d="M32.4,34l.07,0,0,0V34l0,0,.11-.11.11,0,.15-.11.18-.2.26-.35.14-.37,0-.58v-.47l0-.24,0-.12h0l0,0,0,.07,0,.08-.05.13-.06.14,0,.17v.16l0,.15-.08.18-.08.12-.07.05,0,.07v.11l0,.13,0,.09-.1.1-.13.05h-.24l-.06,0-.05,0h0l0,0v.17a.61.61,0,0,1,0,.07l0,.06-.07,0-.08,0h-.06l0,0a.34.34,0,0,0,0,.05s0,.06,0,.06v.08l0,0,0,0,.1.05.2.08.09,0Z"/><path class="cls-1" d="M31.15,34.81s0,0,0,0l.08,0,.09,0h.26l.08,0,.12,0,.05,0h.06l.06-.07.05-.11.06-.11.06-.1,0-.08.07-.12v-.09l0-.09v-.05l-.09-.07L32.17,34l0-.05L32,33.92l-.09,0-.06-.05,0,0,0-.06v-.22l0,0h-.07l-.1.07-.11,0,0,0,0,.08-.13.1-.06.06s0,.06,0,.06l-.07,0h-.13l0,0,0,0,0,0,0,0v.09l0,.12,0,.09,0,0,0,.06,0,.08,0,.06,0,.11v0h0v0h0v0S31.15,34.79,31.15,34.81Z"/><polygon class="cls-1" points="35.92 43.27 35.9 43.28 35.98 43.27 35.98 43.26 35.96 43.27 35.92 43.27"/><polygon class="cls-1" points="36.06 43.15 36.05 43.16 36.05 43.19 36.12 43.19 36.11 43.19 36.08 43.16 36.06 43.15"/><polygon class="cls-1" points="36.66 43.32 36.72 43.32 36.71 43.32 36.68 43.32 36.66 43.32"/><polygon class="cls-1" points="36.34 43.4 36.34 43.4 36.34 43.4 36.34 43.4"/><path class="cls-1" d="M37.57,38.65l0-.05,0-.06,0,0,0-.06v-.06l0-.08,0,0,0,0-.07,0h-.58l-.13-.05-.16-.14-.13-.15-.1-.12L36,37.46l-.1-.24L35.87,37v-.24l0-.21,0-.18,0-.09v0l0,0,0,0-.05,0-.15-.1-.19-.17-.13-.19-.07-.2,0-.17v-.32l.07-.27.06-.15.06-.1,0-.08v-.2l0-.05,0-.07-.06-.05-.09-.06-.09-.06-.13-.12-.12-.16-.07-.12-.05-.14,0-.19v0h-.05l.05,0v-.21l0-.25.14-.35.11-.17.16-.2.12-.12.1-.09,0,0,0-.05v-.64l0-.21.07-.22.06-.24,0-.11,0-.11s0-.08,0-.11l0-.12,0-.13,0-.14,0-.18v-.19c0-.06,0-.12,0-.18l0-.33v-.19l0-.22v-.11l0-.11,0-.08,0-.05,0,0-.06,0-.1,0h-.2l-.05,0-.09,0h-.2v.12l.06.13.09.13v0l.15.28h0l0,0,.05.07,0,0v.23l0,.07,0,.06v.37l0,.13v.09l0,.08,0,.07,0,0,0,0v.07h-.08l-.06,0-.09.13-.13.11-.08.05,0,.06-.05.1-.09.14-.08.11-.07.11-.18.34,0,.06-.09.36h0l0,.07v.6l0,.29-.08.28-.07.23-.12.2,0,.11v0l0,0h.05l.07,0,.05,0,0,0,0,0v.06l0,.08,0,.08,0,0,0,.05,0,0v.11l0,.07v.13l-.05.07-.09,0h-.19l0,.08,0,0v.09h0l0,0,0,0,0,0,0,0v.2l0,0,0,0h.21l0,0,0,0V35l0,0,0,.05,0,0,0,.11,0,0,0,0v0l0-.06h0l0-.09v0h0l0-.13h0v0h-.1l-.11,0h-.1l0,0v-.06h0v-.09l0,0,0,0v0h0v0h0l0,0,0-.07v-.14l.08-.12.06,0h.2l0,0v-.33l0-.05.06-.05,0-.07V33.5h0v0l0,0,0,0h-.2l-.21.28-.23.27-.18.17-.13.12,0,0,0,0v.06H33l.05,0,.06.06,0,0,0,0v0l0,.06,0,0-.07.08-.07.07,0,0,0,0v.19l0,0v0l0-.06,0-.08V35l0-.06,0,0,0,0,.05-.07,0,0,0,0,0,0v-.06l0-.07,0,0h-.13l0,0,0,.05,0,0-.08,0-.07,0-.1.06-.11.11L32.3,35l-.09.13-.08.1,0,0v0l0,0,0,0h.14v.07l0,0,0,0v0l0,0,0,0,0,0v0h-.12l0,0h0l0,0-.09.17-.06.12,0,.08,0,.05v.08l0,0,.05.05,0,0,0,0,0,0,0,0v.1l0,.08,0,0,0,0,0,0,0,0,0,.06,0,.06v.22l0,.07,0,0h-.09l0,0h0l0,0h0l0,0H31.5l0,0h0l0,0v.08l0,.1-.06.08h0l-.07,0h-.11l0,0h0v0l0,0,0,0v0l0,0H31l0,0h0l0,0h-.08v0h-.08l0,0,0,0v0l0,0h.09l0,0h.13l.07,0,.05,0,.05,0,0,0,.05,0,0-.06v0l0,0h0v0h0l.07-.05h.12l.05,0,.05,0,0,0h.07V36.5l0-.07,0-.07,0-.05,0-.05,0-.05v0h0V36.1l0,0h-.16l0,0v0h-.08l-.06,0,0,0,0,0,0,0-.05,0h-.05l-.05,0,0,.08-.05.12-.08.11,0,.07,0,0h0l0,0,0,0,0,0-.06,0h-.14l0,0,0,0,0,0v0l0,0,0,0,0,0h-.11l0,0v.18h0v.06h0l0,0,0,0h0l0,0,0,0,0,0,0-.05,0,0,0,0H30l-.08,0,0,0h-.12l0,0,0,0v-.14h0v0l0,0H29.7v0h-.09l0,0,0,0v-.12l0,0v0h0l0,0h0v.17h.08l0,0h.11l0,0v0l0,0,0,0v.13l0,0h.09l0,0h.27l0,0v.06l0,.05,0,0,0,0h0l0,0,0-.05v0l0-.07v0l0,0,0,0h0l.07,0,.05,0,0,0h0l0,.06,0,.06,0,0h.13l0,0,0,0,0,0,0,0,0,0,0,0,0,0v0l0,0,0,0-.05,0,0,0,0,0h-.12l0,0,0,0,0,0v0l0-.06,0-.05V36l0-.05,0,0,0,0,0,0h0l0,0h0v0h.11l.06,0,0,0,0,0,0,.05,0,.07v.13h0v.09l0,0,0,0v.11l0,0,0,0h0l.08,0,.07-.05.1-.08.08-.07.05-.08,0-.07v-.12l0-.07,0-.08,0-.05,0,0,.06,0,.07,0,.07-.05,0-.05,0,0v0h0l0,0,0,0h-.1l0,0,0,0,0-.06,0,0,0,0h0l0,0,0,0,0,0,0,0,0,0h0l.05,0,0,0,0-.05.06-.1,0,0,0,0,0,0,.07,0h0l0,0,0,0,0,0v0l0,0,0,0h-.14l-.08,0-.09,0h-.21l-.06,0-.06,0,0,0h-.05l0,0,0,0,0-.07,0-.1,0-.09,0-.07v0l0-.06,0,0,0,0h-.09l0,0,0,0v.07h0v0l0,0,0,0v.1l0,0h0l0,0,0,0,0,0,0,0,0,0v0h0l0-.07,0-.05,0,0,0,0,0,0h0v-.1l0,0h0l0,0v-.06l0-.09,0,0h.08v0l0-.06,0-.05v-.14l0,0,0,0,0,0-.05-.05,0,0,0,0,0,0h-.12l0,0,0,0V34l0,0v.11l0,0,0,0v.17l0,0,0,0h0v0h0l0,0v-.08l0,0v-.08l0,0V34h0l0,0,0,0H30.2l0,0,0,0H30l-.06,0h-.06l-.05,0H29.7l0,0,0,0v0l0,0,0,0h-.12l0,0h-.11l0,0v0h0v0h.24l0,0v-.07l0,0,0,0,0,0h.16l0,0H30l0,0,0,0h.26l0,0h0v-.09l0-.06,0,0,0,0h.07l.08,0,.07,0,.06,0,0,0,0,0,0,0,0,0h0l0,0,0,0,0,0h.1l0,0h.06l0,0,0,0,0-.06,0,0,0,0,0,0,0,0,0,0v0h0l0,0,0,0,0,0h-.18l0,0,0,0-.05,0h-.13l0,0,0,0,0,0h-.35l0,0,0,0h-.09l0,0,0,0h-.31l0,0,0,0,0,0,0,0h-.22l0,0h-.17l0,0,0,0,0,0h0l0,0,0,0h0l0,0h0l0,0,0,0h0l0,0h.34l0,0,0,0,0,.05,0,0h.07l0,0,0,0h.15l0,0,0,0,0,0h.07l0,0,0,0h.36l0,0,0,0,0,0,0,0h0l.07,0,.07,0,0,0h.17l0,0,.05,0,0,0h.11l.06,0,.07-.05.06,0,.05,0h.13l.08,0,.07,0h.1l0,0v-.26l0-.06,0,0,0,0h.05l.06,0,.05,0h.26l.1-.05.06-.08,0-.08,0-.09v-.07l0-.06.09-.12,0-.08.06-.13,0-.07,0-.07s0-.06,0-.09V32s0-.07,0-.11l0-.14,0-.2,0-.17,0-.12,0-.18v-.15l0-.21,0-.1,0-.11v-.18l0-.36,0-.16,0-.26,0-.17,0-.1,0-.13V29s0-.05,0-.08l0-.07,0-.05v-.05l0-.05,0,0v0l0,0,0,0,0,0v0l0,0v-.15l0,0v-.16l0-.08,0-.06-.07,0h-.36l0,0h-.06l0,0v-.11l0,0,0,0,0,0,0,0v0l0-.05,0,0,0,0h-.06l0,0v.2l0,0,0,0h-.09l0,0,0,0,0,.05,0,0,0,0v.08l0,.05,0,0h0l0,0,0,0,0,0,0,0,0,0,0,0h0l0,0,0,0,0,0h-.22V28l0,0,0,0,0,0,0,0v.06l0,0v0l0,0,0,0-.09.05,0,0,0,0-.05.07,0,.06v.06h.16v0l0,0-.06.06,0,0,0,0,0,0,0,0,0,0,0,0h0l0,0h.08v0l0,0v0l0,0v0h0l0,0v-.06h0v0h0l0,0,0,0v0l0,0,0,0,0-.06,0,0,0,0h0l0,0,0,0v0h-.1l0,0,0,0v-.06l0-.06,0,0,0,0,0,0,0,0,.06,0,0,0,0,0v0h0V28.1l0,0,0,0v-.09l0,0,0,0h.2l0,0,0,0,0,0,0,0,0,0h0l0,0,0,0,0,0h0l0,0,0,0,0,0,0,0,0,0h.06l0,0v-.08l0,0,0,0,0,0,0,0,0,0,0,0,0,0h.12l0,0v-.1l0,0h0l0,0,0,0,0,0,0,0h-.14l-.11,0h0l-.06,0,0,0,0,0v0h0v-.06h-.07l0,0,0,0,0,0h-.1l0,0v-.12h0v0h-.06l0,0,0,0h-.06l0,0,0,0,0-.07,0,0,0,0v0h0V27l0,0h0l0,0,0,0v0h0l0,0,0,0v0l0,0h0l0,0v0l0,0h-.06l0,0v0l0,0,0,0,0,0h.1l0,0v.06l0,.07,0,.06,0,0,0,0h0l0,0,0,0,0,0h0l0,0v.16l0,0h0l0,0,0,0,0,0h.08l0,0,0,0,0,.06,0,0,.07,0,.08,0h.15l0,0,0-.05,0,0,0-.05,0,0,.06,0h.11l.08.05.08.07,0,0,0,.06v.11l0,.05,0,0,0,0,0,0,0,0v0l0,0h.12l.05,0,.07,0H33l.05,0,.06,0,0,0,0,.06,0,.07v.26l0,0h.11l0,0v-.06h.05v0l0,0h.17l0,0,0,0h0l0,0,0,0,0,0h.08l.07,0,0-.06V28s0-.08,0-.13l0-.2,0-.13,0-.12-.06-.09L33.69,27l-.15-.31-.07-.25,0-.19,0-.34.09-.43.09-.31.13-.25.17-.26.08-.13,0-.1v-.25l0,0h-.07l-.17,0L33.44,24l-.34-.15-.31-.19-.3-.23-.25-.25L32,23l-.06-.1,0,0v0l0,0-.09-.09-.17-.23,0-.06,0,0h0v-.09h-.12v0l0,0h-.17l0,0,0,0,0,0,0,0v.08h0l0,0H31l0,0v-.08l0,0v0h0l0,0,0,0v0h0l0,0h0l0,0,0,0h.08l0,0,0,0H31l0,0v.09h0l0,0v0l0,0,0,0,0,0,0,0h.22l0,0,0,0h0v0l0-.09,0-.13,0-.1,0-.16,0-.15,0-.1-.09-.21-.12-.36-.08-.3-.08-.29L30.87,20v-.17l0-.26-.07-.39v-.14l0-.11V18.8l0-.23v-.31c0-.09,0-.19,0-.28v-.12l-.06-.24-.09-.38,0-.2v-.22l0-.08v-.06h-.05l0,0,0,0,0,0h-.06v0l0,.06,0,.09v.11l-.08.06-.1,0,0,0L30,17l-.12,0h-.14L29.47,17l-.13-.09-.12-.08-.05,0h0V17l0,0,0,0v.08l0,0h.09l0,0h0l0,0v.09l0,0-.06,0v.15l0,0h0l0,0v0h0v0h0V17.3l0,0h0l0,0v0h-.1l-.07,0,0,0,0,0V17l0,0,0,0v-.2l0-.06-.11-.11,0,0h0l-.05,0h-.09l0,0,0,0h0v0l0,.05v.3l0,.17-.08.26-.11.14-.08.05h0l-.07,0-.3.16-.16.09-.15.13-.12.06-.16,0-.15,0L27.19,18l.06.1.21.06h0l-.21-.06-.06-.1h0l-.13-.13L27,17.72l0-.08-.1,0h0l.1,0v0l0-.05,0,0h0l-.07,0-.12.07-.17.06h-.11l-.09,0-.07,0h-.08l0,0,0,0v.07l0,.05h0v0l0,.14v.11h0l0,.05,0,.06-.16.08h-.12l-.14,0,.18.12h0l-.18-.12h0l-.09,0,0,0h0l0,0h0l0,0-.08.05h0l-.08,0h-.31l-.08,0-.08-.06-.05-.06,0,0h-.07l-.08,0-.07.06,0,.06v.07l0,.07.07,0,.1,0,.07,0,0,0,0,.08,0,.1-.11.07h-.15l-.12,0-.08,0h-.32l0,0,0,0v0h.1l0,0v0l-.06.05h0l0,0h0l0,0,0,0,0,0,0,0h-.12v-.06l0,0,0,0,0,0v0h-.32l-.05,0,0,0,0,.06,0,.05,0,0,0,0-.07,0h-.14l0,0,0,0h0l0,0,0,0,0,0,0,0h0l0,0,.06,0,0,0,0-.06v-.05l.07-.06.06,0h.11l.06,0h.39l.07,0,.07,0,.06,0h.21l.06,0,0-.05v-.09l0,0h-.16l0,0,0-.06v-.12l0-.11.05-.08.08-.06.07,0h.08l.06,0,.07,0,.06.06.06,0,.05,0H25l.09,0,.08,0h0l0-.15L25,17.91h0l.07.09,0,.15h.09l.1-.07.06,0h.11l.07,0,.06,0,.05,0,.06,0h.16l.07,0,.05,0L26,18v-.07l0-.07,0-.1,0-.12.06-.09.06,0,.08,0h.16l.07,0,0,0,0,0h0l0,0,0,0,0,0,.06,0,.09,0,.1,0,.06,0,.07.1.08.17.07.13.06.07.05,0,.11,0h0l.08-.06.1-.07.07-.08.1-.11.07-.06.1-.06.12,0,.12-.05.09,0,.08-.06,0-.05,0,0v-.06l0-.06,0-.11v-.27l0-.12,0-.05.05-.12.06-.08.09-.06.05,0h.13l.09,0H29l.15,0,.08,0h0l0,0,.06.05.05,0,.06,0h.08l.09,0,0,0v-.13l0-.09,0-.06-.06,0,0,0,0,0,0,0h0v-.16h-.14l0,0,0,0h0l0,0,0,0,0,0,0,0v-.13l0,0,0,0,0,0,0,0v-.09l0,0h0l0,0,0,0,0,0h.09l0,0,0-.09V15l0-.07,0,0,0,0,0,0,0,0v-.11l0,0,0,0,0,0,0,0v0l0,0,0,0,0,0v0l0,0h-.08l0,0,0,0v0h0l0,0,0,0h.08l0,0,0,0v.07l0,0,0,0,0,0v0l0,0,0,0,0,0,0,0v.06l0,.05,0,.06,0,0,0,.06v.21l0,.07,0,.06-.06,0h-.07l0,0,0,0h-.05v.09l0,0,0,0,0,0v.16l0,0h.07l0,0,0,0,0-.05.05-.1.05-.12,0-.08.07-.12.07-.05.07,0,.06,0,0,0,0,0v-.07l0,0-.05,0-.05-.06-.05-.07,0-.06,0-.09,0-.07,0,0v-.08s0,0,0-.07v0l0-.14,0-.07,0,0h0l0,0,0-.07v-.05l0-.07-.08-.33,0-.16v-1l0-.11,0-.05,0,0,0,0V12h-.19l-.14,0-.11-.05-.25-.15-.22-.21-.16-.21-.13-.18L28.48,11l-.12-.35-.08-.25,0-.17,0-.12,0-.2,0-.19s0-.07,0-.11l0,0,0-.09,0-.09,0-.18V9l0-.09,0-.2,0-.21,0-.15,0-.36v-.5h0l-.05-.38,0,.18.07,0-.08-.25L27.79,6l0-1.78-.07-2.08,0-.47,0-.29V1L27.67.73l-.14.13.05-.13L27.51.64l-.39.1L27,.9,26.9,1l-.08,0,0,.07-.46.44-.07,0-.08,0L26,1.6l-.15,0-.18.14-.43.11L25,1.76l0-.07-.09-.05-.18.12-.37,0-.48.66-.34.14-.16.15-.34.1L22.81,3,22.64,3,22.33,3l-.23-.11-.25-.24-.22-.34-.76-.54-.17-.27-.2-.14h-.14l-.2.14,0,.22-.08.1-.2,0-.3-.08,0,.16L19.49,2l-.24.33-.06.26L19,2.89l-.08.26-.36.19-.15.15-.12.21-.07,0-.2.32-.21.11,0,.18-.12.11-.33,0L17,4.4l-.34.25-.39.13-.19,0-.59-.19-.29-.25-.11,0-.16,0h-.14l-.18,0-.2-.12-.25-.24L14,3.66V3.35l-.23-.25-.23-.58-.07-.06-.21-.07,0,0-.05.27,0,.08-.09.18-.17.24-.14.09-.2.05-1,.08-.92.47-.2.07L9.32,4,8.81,4,7.22,4l-.34-.14-.25-.2L5.32,2.14,3.5,5,3.74,6.5l.16.59.76.25.08,0,.06-.19.07-.05.19.1.26-.11.16,0,.11,0,.09,0L5.8,7l.09,0,.27.12h.09l.13-.18,0-.19.14-.06.08-.07.08,0,.08,0L7,6.7H7l.08-.16h.1l0,.2L7.2,7,7.25,7h.08l0,.18.09.09-.1.17.06.15v.32l-.08.43-.68,1.72.4.07.81,1.07,0,2.1-.09.11h-.2l-.07-.07v-.2L7.33,13l-.1,0-.1,0L7,13l-.28.65-.1.13L6.4,14l-.1.29,0,.42.1.57,0,.12-.2.26h0l-.34.16-.91.2.2,0,.17,0,.2.06h.19l.09.08.07.13L6,17l.13.07.14,0,.42.26L7,17.27l.08.1.11.06.14-.08.21,0,.17.21.06.3h.06l.11-.08H8l0,.08-.26.31-.14.26-.08.29v.34l-.05.19,0,.19-.07.34L7.38,20l.14,0,.08.19.17,0,.05-.05.1,0L8,20.06l.06,0,.16.1h.12l.22.08.08.08.05.07,0,.16v.19l.16.19,0,.09,0,.13.09.05.07.24-.16.14-.67.23L7.9,22l.05.42.1.2.54.61,0,.09,0,.16-.05.35,0,.2.07.18.11.11,0,.13,0,.27.21.08.14.2.13.34.08.36.1.24.08.51.1.26.12.07.36-.12.06,0,.2.28.2.09.46.34-.87.79L8,29.05H8l-.22.12-.15,0-.53.18H6.7l-.58.15-.81.28-.12.06L5.09,30,5,30.31l0,.15.08.19-.09.28.05.2-.11.08H4.68v.55l2.48,3.64.16,0,.09.09h.11l.22.21-.05.12.06.18-.1,0,0,.1.06.05.15,0,.07,0L8,36.08l.17.07.05.08-.12.2v.19h.18l.12-.15h.11l.14.18,0-.13.19,0,0-.15L9,36.28l.26-.09.17.1.1-.17.12,0-1,1.87-.21.27-.12.28L8,38.66l-.1,0-.15.1-.11,0-.23.06,0,.08V39l-.08.15,0,.22-.09.13,0,.15-.08.07,0,.12,0,.09L7,40.11,7,40.22v.12l-.11.17-.58.44-.13,0-.83.29-1.14.54.2.85.3.87-.16,0-.05.05,0,0-.08.05-.19,0-.2.06-.18,0,0-.07-.05,0-.35.05H3.28l-.14,0,0,0,0,.12,0,0H2.85l-.07-.07-.11.05-.44-.15L2,43.7l-.06.19L1.58,44l0,.07H1.48l-.17-.18-.17.2-.36,0-.21.14-.08.12.55.44.46.2.14.12.12,0,.16.12.13.22.26.09.08-.18.19-.23.13-.07.22,0,.54-.29.35-.15.05,0L4,44.63l.16,0,.14-.14,0-.25.07-.05.12.06.07.09,0,.14.18.27L5.1,45l.84-.59,1.3,1.52.47.56.62.76.14,1,.45-.09H9.4l1,2.16.13.25,0,.19-.08.13-.17.09L10.2,51l0,.09-.15.15-.3.15.14.26.08,0,.14.2.2-.15.7-.28.4-.1.46-.18.2,0h.17l.25.08.11.1.39,0,.71.15.42.26.52.12.21.25.07.2.07.07.18.06.26-.16h.11l.19.06.39-.21.11-.23.76.22.26,0,.54.2.53.05.49.18,0,.15.35,0,.11.13.13.07,1,.09.37-.12.36-.2.06-.07v-.2l.26-.09.48.14.28.18.14.27.48.32.36.32.43.22.31.09.3.14.53.58L25,55l.53.38.23.28.37.21.39.14.21.13.06.09v.33l-.23.38-.11.73.15.11.08.15.05.42v.18l.06.23.29.1.14.13,0,.09.16.14.23.28.49,1,.34,0,.23-.08.63-.44.22-.08h.16l.47.23.41.52.19.12.16,0,.07-.05-.11-.22.08,0h0l.23.05.26-.1,0,.05.07.06-.19.25.09.19.38,0,.15-.15,0-.37h.11l.13,0,.13.17.19.09.32.06H33l.1.31.07,0,.2-.05.19-.15.33-.44.24.09,0-.21,0,.19h0l.08,0,.08,0,.08,0,.08,0h0l0,0,0,0,.05,0H35l.08,0,.06.07.08.09,0,.06,0,.07,0,.07,0,.05,0,0h.24l0,0,0,0,0-.12,0-.09v-.08l0-.06,0,0v-.07l0-.16,0-.16,0-.12L36,60l.11-.2,0-.07.16-.23.1-.15.1-.14,0-.07,0-.06V59l0-.11-.09-.18-.08-.2-.07-.24,0-.19v-.28l0-.23.1-.22.1-.18.12-.15.08-.07.06,0,0,0,0,0,0,0v0l0,0-.05-.06-.13-.16-.1-.18-.07-.18,0-.19v-.17l0-.29,0-.29,0-.13V55h-.06l0,0,0,0v0h0v0l0,0,0,0v.1l0,0,0,0-.05,0h-.08l0,0,0,0v0l0,0h-.16l0,0,0,0L36,55v0h-.13V54.8l0,0,0,0v0l0,0,0,0,0,0h0v0l0,0,0,0,0,0h-.07l-.06,0,0,0v-.16h0l0,0v0h-.05l0,0,0,0,0,0,0,0h-.07v0h.08l0,0,0,0,0,0h.06l0,0,0,0h.07l0,0v.15l0,0,0,0h.1l0,0,0,0,0,0v0h.07l0,0,0,0v.08l0,0v0h0l0,0H36l0,0,0,0V55h.06l0,0h0l.06,0,0,0,0,0v0l0,0h0l0,0,0,0v-.28h0v0h0l0,0v0h0l0,0h0v0h0v.09h0l0,0v0h0v.07h0l0,0v-.17l0-.09,0-.14,0-.22,0-.14,0-.15,0-.22v-.27l0-.2,0-.25V53l0-.15,0-.11v-.26l0-.16,0-.08,0-.08V52l0,0h-.06v-.19l0,0,0,0v0h0v0l0,0,0,0v.17H37v-.16l0-.1h0l0-.12,0-.13,0-.15.05-.17V51l0-.09h0v-.3h0l0,0,0,0,0,0v-.19l0-.13V50l0-.11,0-.09h0v-.38l0,0v-.06l0-.08,0-.09,0-.07,0-.08,0-.06v-.35h-.11l0,0v-.31h0v0h-.06l0,0,0,0V48h0v-.2l0,0,0,0v0l0,0,0,0v-.07l0-.09.06-.16,0-.07,0,0V47l0,0,0,0,0,0,0,0,0,0,0-.06v-.41l0-.12,0-.08,0-.23h0v-.26l0-.08h-.05l0,0v0l0-.08v-.06h0v0h0v-.17l0-.06,0-.08,0-.1,0-.09,0-.21v-.23l0-.2V44h-.09v-.1h0V44h0l0,0v-.15l0,0v0h0l-.05,0,.13-.24v-.08h-.1l0,0,0,0,0,0,0,0h-.14l0,0,0,0-.06,0h-.05l0,0,0,0v-.08l0,0v0l0,0v0l0,0,0,0h-.08v0l0,0h-.16l0,0h0l0,0,0,0,0,0v-.06l0,0V43h0v0h0v0h0v0h0v0h0l0,0h.09l0,0,0,0H36v-.08h.06l.05,0,0,0,0,0v.11l0,0h0v0h0v0h.06l0,0,0,0,0,0h.13l.05,0v0l0,0,0,0h.13l0,0,0,0,0,0v0l0,0v.1l0,0,0,0,0,0v.1h0v0l0,0,0,0,0,0v0h0v0h0l0,0v-.13l-.06,0h0l.08-.15v0l.06-.25v-.12h0v-.18l0-.19v-.6L37,42l0-.1,0-.15,0-.12,0-.09,0-.06v0h0v.05h0v.05l0,0h0v0h0v-.07l0,0v0h.07l0,0,.08-.14.09-.14,0-.06,0-.07,0-.05,0-.06v-.16l0,0V40.6l0-.05,0-.08v-.65l0-.05V39.2l0-.13.05-.12,0-.12,0-.09,0-.05ZM30,45.4l-.75,0,.09-.69.19-.5L29.21,44h-.15v-.24h0V44h.15l.36.19-.19.5-.1.69.75,0v.09l.12.05.22.31.19.48h0l-.19-.48-.22-.31-.12-.05Zm4.07-2.34.07-.08h0l-.06.07h0Zm.58.18h0l-.1,0h0Zm-.38-.17h0Zm-.38,6.25h0l-.13.08h0ZM32,48l.29.2L32,48Zm.37.26h0ZM29.2,43.61h0l-.06.08Zm.44-.38,0-.24.17-.28.36-.31h0l-.36.3-.17.28,0,.24-.1.23h0ZM30.87,42h0l-.21.21h0Zm-.47,4.9,0,.16.57.35.19,0,.13.14.33.24h.14l.19.05h0l-.18-.05h-.14l-.33-.24-.13-.14-.19,0-.57-.35,0-.16Zm4.15-3.83h0l-.16.17h0Zm1-.13h0l-.12,0h0Zm-.36.09.08-.06v-.08l.08,0h0l-.07,0V43L35.2,43l-.17,0,.05.11v.1L35,43.4v0l.06-.1v-.1L35,43.06Zm-.34.17h0l-.06.13h0Zm-.69-8,0,.11,0-.11Zm-.26,0h0l0,0Zm0,7.65h-.08l-.14.08h0l.13-.07Zm-.26-.05h0Zm-.15-.1h0l-.22.08h0Zm-.4-.3h0l-.16,0h0ZM31.37,22.22h0Zm-4.73-4.46h0l-.37-.06h0Zm-2.24,0-1.05-.65H22.5l-1.82-2,.32-.78.41-.21.92-.17h0l-.92.17-.41.21-.32.78,1.82,2h.85l1.05.65Zm-.61-4.23-.37.26-.19.08-.54.12h0l.54-.12.19-.08.37-.26ZM24.67,18l-.2-.3h0l.2.3h0Zm.18-4.75-.53,0-.28,0-.12.15h0l.12-.15.28,0,.53,0,.58-.17h0Zm1.86.17h0l.08,0h0Zm.08,0h0l.06,0h0Zm.19,0h0l.08,0h0Zm.2.1h0l.07-.06h0Zm.16,0,0,0h0l0,0Zm.14.05h0l.19,0,.05,0h0l-.05,0Zm1.17-.14h0l-.08.08h0Zm-.15.07h0l-.09.05h0ZM27.31,7h0V7l0,0h.05V7h0l0,0h0V7h-.1Zm7,42.66h0l.22-.22h0Zm2.3,1.28,0,0,0,0Zm-.95-8L35.6,43h0l.08-.06.22.06h0Z"/><polygon class="cls-1" points="36.48 43.37 36.51 43.36 36.51 43.35 36.46 43.37 36.48 43.37"/><path class="cls-1" d="M34,28.85h-.09l-.11,0-.09,0V28.7l0,0,0,0-.08,0-.06,0-.09,0v.07l0,.11,0,.15v.26l0,.15,0,.19,0,.14.06.18,0,.13.07.11.06.11,0,.11,0,.12,0,.07h0v0l0-.05.09-.07.07-.11.11-.15.18-.31,0-.13,0-.19,0-.18,0-.07h0V28.9l0-.06-.09,0-.15,0H34Z"/><polygon class="cls-1" points="33.89 34.99 33.9 34.94 33.9 34.92 33.88 35.01 33.89 34.99"/></g></g></svg>